<svg xmlns="http://www.w3.org/2000/svg" width="17.186" height="17.186" viewBox="0 0 17.186 17.186">
  <g id="Icon_feather-sun" data-name="Icon feather-sun" transform="translate(0.5 0.5)">
    <path id="Path_9" data-name="Path 9" d="M17.857,14.179A3.679,3.679,0,1,1,14.179,10.5,3.679,3.679,0,0,1,17.857,14.179Z" transform="translate(-6.086 -6.086)" fill="none" stroke="#fff" stroke-linecap="round" stroke-linejoin="round" stroke-width="1"/>
    <path id="Path_10" data-name="Path 10" d="M18,1.5V2.971" transform="translate(-9.907 -1.5)" fill="none" stroke="#fff" stroke-linecap="round" stroke-linejoin="round" stroke-width="1"/>
    <path id="Path_11" data-name="Path 11" d="M18,31.5v1.471" transform="translate(-9.907 -16.785)" fill="none" stroke="#fff" stroke-linecap="round" stroke-linejoin="round" stroke-width="1"/>
    <path id="Path_12" data-name="Path 12" d="M6.33,6.33,7.375,7.375" transform="translate(-3.961 -3.961)" fill="none" stroke="#fff" stroke-linecap="round" stroke-linejoin="round" stroke-width="1"/>
    <path id="Path_13" data-name="Path 13" d="M27.54,27.54l1.045,1.045" transform="translate(-14.767 -14.767)" fill="none" stroke="#fff" stroke-linecap="round" stroke-linejoin="round" stroke-width="1"/>
    <path id="Path_14" data-name="Path 14" d="M1.5,18H2.971" transform="translate(-1.5 -9.907)" fill="none" stroke="#fff" stroke-linecap="round" stroke-linejoin="round" stroke-width="1"/>
    <path id="Path_15" data-name="Path 15" d="M31.5,18h1.471" transform="translate(-16.785 -9.907)" fill="none" stroke="#fff" stroke-linecap="round" stroke-linejoin="round" stroke-width="1"/>
    <path id="Path_16" data-name="Path 16" d="M6.33,28.585,7.375,27.54" transform="translate(-3.961 -14.767)" fill="none" stroke="#fff" stroke-linecap="round" stroke-linejoin="round" stroke-width="1"/>
    <path id="Path_17" data-name="Path 17" d="M27.54,7.375,28.585,6.33" transform="translate(-14.767 -3.961)" fill="none" stroke="#fff" stroke-linecap="round" stroke-linejoin="round" stroke-width="1"/>
  </g>
</svg>
