<svg xmlns="http://www.w3.org/2000/svg" width="28.304" height="28.304" viewBox="0 0 28.304 28.304">
  <path id="Icon_open-magnifying-glass" data-name="Icon open-magnifying-glass" d="M12.272-.01a12.272,12.272,0,0,0,0,24.543,12.129,12.129,0,0,0,5.82-1.438,3.506,3.506,0,0,0,.456.456l3.506,3.506A3.576,3.576,0,1,0,27.1,22.009L23.6,18.5a3.506,3.506,0,0,0-.561-.456,12.107,12.107,0,0,0,1.543-5.82A12.285,12.285,0,0,0,12.307-.045Zm0,3.506a8.724,8.724,0,0,1,8.765,8.765,8.792,8.792,0,0,1-2.314,6.031l-.105.105a3.506,3.506,0,0,0-.456.456,8.774,8.774,0,0,1-5.925,2.209,8.765,8.765,0,0,1,0-17.531Z" transform="translate(0 0.045)" fill="#0075a3"/>
</svg>
