<svg id="Logo" xmlns="http://www.w3.org/2000/svg" width="300.253" height="167.396" viewBox="0 0 300.253 167.396">
  <path id="Subtraction_4" data-name="Subtraction 4" d="M51.207,129.946c-9.317,0-18.6-9.269-25.384-16.037l-.073-.073c-1.327-1.325-2.582-2.577-3.673-3.583a25.634,25.634,0,0,0-7.444-4.4c-4.672-2.07-9.5-4.208-12.914-12.32-3.693-8.776-.59-34.314,1.463-51.213l0-.04C4.086,34.869,4.8,29.015,4.7,26.669A88.215,88.215,0,0,0,2.956,14.959C1.933,9.62.968,4.578,1.719,2.508,2.264,1.008,4.081,0,6.239,0a9.781,9.781,0,0,1,5.937,2.243,21.747,21.747,0,0,1,6.094,8.043c3.165,6.584,3.267,10.687,2.8,12.97a5.665,5.665,0,0,1-1.8,3.413A20.615,20.615,0,0,1,22.077,37.1c.161,6.519-3.767,9.567-3.808,9.6a15.758,15.758,0,0,0,4.814.646h.145c-2.012,2.508-2.991,4.68-2.991,6.644,0,4.689,4.72,6.635,4.768,6.655,5.126,10.257,9.484,10.646,9.527,10.648.65,3.446,1.981,4.851,4.6,4.851a14.615,14.615,0,0,0,2.8-.339,2.236,2.236,0,0,0-.3.193,2.774,2.774,0,0,0-.985,2.3,6.653,6.653,0,0,0,1.435,3.847,7.422,7.422,0,0,0,1.964,1.829,6.272,6.272,0,0,0,1.273,3.048,5.893,5.893,0,0,0,3.234,2.271A5.889,5.889,0,0,0,50.166,92.9,5.575,5.575,0,0,0,54,94.909a2.244,2.244,0,0,0,1.533-.54c1.23-1.111.828-3.574-.9-5.49a5.938,5.938,0,0,0-3.213-1.949,5.982,5.982,0,0,0-1.3-3.53,6.918,6.918,0,0,0-1.273-1.3,6.526,6.526,0,0,0-1.435-3.979,5.94,5.94,0,0,0-4.227-2.588c4.73-1.085,11.276-3.214,13.479-4.658a12.729,12.729,0,0,0,3.2-3.493,1.9,1.9,0,0,0-.168.8c0,1.635,1.753,3.831,4.263,5.34a10.322,10.322,0,0,0,5.021,1.611c.139,0,.274-.005.4-.016a11.715,11.715,0,0,0,7.933,5.994,8.271,8.271,0,0,0,2.961,3.158A8.121,8.121,0,0,0,84.5,85.688,2.589,2.589,0,0,0,86.78,84.7a1.989,1.989,0,0,0,.3-1.092c0-1.49-1.342-3.365-3.341-4.665a8.566,8.566,0,0,0-3.712-1.395,10.653,10.653,0,0,0-3.307-3.88,9.658,9.658,0,0,0-5.352-2.16l-.154,0a11.552,11.552,0,0,0-8.836-5.335,2.914,2.914,0,0,0-2.228.772,34.255,34.255,0,0,0,2.821-5.465c1.662-4.043.619-5.845-4.2-11.21a12.878,12.878,0,0,1-3.509-7.191,7.577,7.577,0,0,1,.219-3.037,4.92,4.92,0,0,0,3.895,1.611l.168,0a8.635,8.635,0,0,0,4.413-1.194,2.879,2.879,0,0,0,2.386.855,10.941,10.941,0,0,0,4.551-1.271c4.181-2.009,4.387-4.524,4.351-5.247a1.884,1.884,0,0,0-1.058-1.762,2.622,2.622,0,0,0-.871-.113,28.064,28.064,0,0,0-4.41.639,37.626,37.626,0,0,1-4.948.738c-.059,0-.123,0-.191,0-1.106,0-3.479-.289-6.482-.654-.912-.111-1.879-.229-2.879-.346-1.847-.217-3.372-.383-4.8-.521,5.072-3.994,8.442-5.549,12.016-5.549a19.135,19.135,0,0,1,7.295,1.755c10.313,4.236,19.017,10.082,22.176,14.894,3.44,5.238,8.781,21.709,11.258,32.937,1.414,6.414,1.862,11.039-.273,14.275-1.646,2.495-4.82,4.113-9.987,5.091-.026.279-.355,2.806-3.394,6.662-2.946,3.737-9.112,9.52-21.766,15.846a21.2,21.2,0,0,1-3.641,5.627A16.059,16.059,0,0,1,51.207,129.946ZM65.746,88.018v0A7.183,7.183,0,0,0,68.48,91.8a7.283,7.283,0,0,0,4.183,1.588,2.653,2.653,0,0,0,2.23-.942,2.263,2.263,0,0,0,.442-1.406c0-1.486-1.112-3.284-2.833-4.581a7.275,7.275,0,0,0-4.179-1.589,4.082,4.082,0,0,0-.438.023,7.189,7.189,0,0,0-2.734-3.782,8.009,8.009,0,0,0-3.2-1.489A8.4,8.4,0,0,0,59.2,75.168a8.029,8.029,0,0,0-4.989-2.283,2.541,2.541,0,0,0-1.955.753,2.4,2.4,0,0,0-.565,1.635,7.6,7.6,0,0,0,2.815,5.11,9.086,9.086,0,0,0,3.861,2.146,7.027,7.027,0,0,0,2.764,3.92,7.285,7.285,0,0,0,4.186,1.589,4.108,4.108,0,0,0,.43-.022ZM80.1,65.517v0a8.575,8.575,0,0,0,3.6,3.112,9.142,9.142,0,0,0,3.885.967c1.6,0,2.8-.569,3.281-1.562a2.34,2.34,0,0,0,.233-1.029c0-1.737-1.717-3.787-4.176-4.986a9.125,9.125,0,0,0-3.888-.97A4.771,4.771,0,0,0,80.9,61.5a7.27,7.27,0,0,0-2.917-2.453,7.506,7.506,0,0,0-3.254-.807,5.092,5.092,0,0,0-.9.077,6.9,6.9,0,0,0-3.2-2.946,7.523,7.523,0,0,0-3.261-.807,3.136,3.136,0,0,0-3.012,1.468A2.191,2.191,0,0,0,64.14,57c0,1.575,1.432,3.333,3.563,4.373a7.508,7.508,0,0,0,3.257.806,5.134,5.134,0,0,0,.9-.076,6.908,6.908,0,0,0,3.2,2.946,7.546,7.546,0,0,0,3.264.806,4.4,4.4,0,0,0,1.782-.342Z" transform="translate(152.373 37.45)" fill="#f8afb4"/>
  <path id="Subtraction_3" data-name="Subtraction 3" d="M52.338,129.945a16.063,16.063,0,0,1-12.083-5.628,21.522,21.522,0,0,1-3.642-5.628C23.96,112.364,17.8,106.581,14.851,102.844c-3.154-4.005-3.384-6.556-3.392-6.662-5.169-.977-8.344-2.594-9.99-5.089C-.667,87.857-.219,83.231,1.2,76.817c2.478-11.226,7.818-27.7,11.256-32.935,3.159-4.811,11.863-10.658,22.176-14.9a19.146,19.146,0,0,1,7.293-1.753c3.577,0,6.947,1.556,12.018,5.548-1.375.133-2.9.3-4.809.52-.954.113-1.879.225-2.755.332l-.123.015c-3,.365-5.37.654-6.475.654-.068,0-.133,0-.191,0a37.328,37.328,0,0,1-4.953-.737,27.971,27.971,0,0,0-4.4-.637,2.62,2.62,0,0,0-.875.115A1.89,1.89,0,0,0,28.3,34.8c-.035.723.174,3.235,4.351,5.239a10.956,10.956,0,0,0,4.559,1.273,2.913,2.913,0,0,0,2.378-.85A8.663,8.663,0,0,0,44,41.655l.167,0a5,5,0,0,0,3.9-1.615s.006.007.009.016a7.831,7.831,0,0,1,.211,3.023,12.865,12.865,0,0,1-3.513,7.19c-5.14,5.721-5.768,7.4-4.2,11.212a34.408,34.408,0,0,0,2.822,5.465,2.919,2.919,0,0,0-2.23-.772,10.338,10.338,0,0,0-5.028,1.615,10.237,10.237,0,0,0-3.8,3.72l-.155,0a9.666,9.666,0,0,0-5.354,2.157,10.614,10.614,0,0,0-3.3,3.881A8.534,8.534,0,0,0,19.8,78.942a8.4,8.4,0,0,0-2.864,2.97,2.728,2.728,0,0,0-.173,2.787,2.577,2.577,0,0,0,2.276.989,8.135,8.135,0,0,0,4.215-1.419,8.277,8.277,0,0,0,2.96-3.158A10.609,10.609,0,0,0,30.842,79a10.585,10.585,0,0,0,3.307-3.885c.122.009.253.015.393.015a10.34,10.34,0,0,0,5.033-1.614c2.551-1.534,4.265-3.679,4.265-5.338a1.911,1.911,0,0,0-.169-.8,12.67,12.67,0,0,0,3.2,3.49c2.191,1.439,8.739,3.571,13.479,4.659a5.964,5.964,0,0,0-4.229,2.589,6.532,6.532,0,0,0-1.432,3.98,7,7,0,0,0-1.274,1.3,5.976,5.976,0,0,0-1.3,3.53,5.969,5.969,0,0,0-3.216,1.95c-1.726,1.918-2.126,4.38-.895,5.487a2.247,2.247,0,0,0,1.537.544,5.6,5.6,0,0,0,3.83-2.008,5.877,5.877,0,0,0,1.609-3.614,5.884,5.884,0,0,0,3.234-2.271A6.3,6.3,0,0,0,59.5,83.969a7.43,7.43,0,0,0,1.961-1.829A6.661,6.661,0,0,0,62.9,78.292a2.784,2.784,0,0,0-.981-2.3,2.5,2.5,0,0,0-.3-.19,14.58,14.58,0,0,0,2.8.338c2.615,0,3.947-1.405,4.6-4.851.045,0,4.412-.415,9.528-10.65.05-.02,4.766-1.981,4.766-6.656,0-1.96-.979-4.132-2.992-6.642h.145a15.8,15.8,0,0,0,4.815-.646c-.411-.324-3.963-3.342-3.808-9.6a20.477,20.477,0,0,1,2.814-10.427,5.747,5.747,0,0,1-1.8-3.415c-.472-2.284-.369-6.388,2.793-12.97a21.758,21.758,0,0,1,6.094-8.042A9.788,9.788,0,0,1,97.306,0c2.157,0,3.973,1.007,4.517,2.505.755,2.071-.212,7.117-1.235,12.46l0,.01,0,.02a88.715,88.715,0,0,0-1.737,11.675c-.1,2.343.611,8.19,1.512,15.592l0,.027c2.057,16.908,5.164,42.461,1.464,51.245-3.417,8.112-8.244,10.25-12.913,12.317a25.638,25.638,0,0,0-7.443,4.4c-1.121,1.034-2.4,2.311-3.754,3.664C70.936,120.678,61.656,129.945,52.338,129.945ZM35.22,84.869a7.275,7.275,0,0,0-4.178,1.589c-2.429,1.828-3.5,4.514-2.395,5.988a2.662,2.662,0,0,0,2.23.942A7.266,7.266,0,0,0,35.062,91.8,7.171,7.171,0,0,0,37.8,88.018a4.109,4.109,0,0,0,.433.022,7.308,7.308,0,0,0,4.19-1.589,7.049,7.049,0,0,0,2.76-3.921,9.134,9.134,0,0,0,3.863-2.147,7.607,7.607,0,0,0,2.813-5.108,2.4,2.4,0,0,0-.565-1.636,2.542,2.542,0,0,0-1.957-.755,8.026,8.026,0,0,0-4.986,2.285,8.388,8.388,0,0,0-2.758,4.454A8.018,8.018,0,0,0,38.4,81.11a7.166,7.166,0,0,0-2.734,3.782A4.067,4.067,0,0,0,35.22,84.869ZM20.505,61.049a9.129,9.129,0,0,0-3.888.97A8.687,8.687,0,0,0,13.162,64.9a3.159,3.159,0,0,0-.488,3.129c.485.993,1.682,1.563,3.282,1.563a9.092,9.092,0,0,0,3.885-.968,8.558,8.558,0,0,0,3.6-3.111,4.43,4.43,0,0,0,1.786.341,7.544,7.544,0,0,0,3.263-.8,6.982,6.982,0,0,0,3.2-2.946,5.094,5.094,0,0,0,.89.075,7.581,7.581,0,0,0,3.265-.805c2.13-1.041,3.561-2.8,3.561-4.37a2.227,2.227,0,0,0-.22-.978,3.133,3.133,0,0,0-3.009-1.469,7.533,7.533,0,0,0-3.263.808,6.9,6.9,0,0,0-3.2,2.946,5.138,5.138,0,0,0-.9-.076,7.541,7.541,0,0,0-3.262.806A7.323,7.323,0,0,0,22.642,61.5,4.751,4.751,0,0,0,20.505,61.049Z" transform="translate(44.334 37.45)" fill="#aadeee"/>
  <path id="Union_1" data-name="Union 1" d="M3.463,63.168c-3.918-1.911-4.616-8.544-1.558-14.814A16.334,16.334,0,0,1,8.861,40.8a16.558,16.558,0,0,1,1.729-9.817,17.24,17.24,0,0,1,5.8-6.889C14.67,20.718,15.016,15.2,17.619,9.864c3.536-7.249,9.9-11.422,14.208-9.32s4.939,9.684,1.4,16.934a20.069,20.069,0,0,1-7.351,8.5c1.341,3,1.036,7.552-1.1,11.926a16.331,16.331,0,0,1-6.956,7.552A16.559,16.559,0,0,1,16.1,55.275c-2.5,5.117-6.721,8.411-10.321,8.411A5.224,5.224,0,0,1,3.463,63.168Z" transform="translate(204.944)" fill="#f8afb4"/>
  <path id="Union_5" data-name="Union 5" d="M3.463.519C-.455,2.43-1.153,9.063,1.905,15.333a16.333,16.333,0,0,0,6.955,7.551A16.558,16.558,0,0,0,10.589,32.7a17.241,17.241,0,0,0,5.8,6.889c-1.718,3.378-1.371,8.895,1.231,14.232,3.536,7.249,9.9,11.422,14.208,9.32s4.939-9.684,1.4-16.934a20.069,20.069,0,0,0-7.351-8.5c1.341-3,1.036-7.552-1.1-11.926a16.332,16.332,0,0,0-6.956-7.552A16.56,16.56,0,0,0,16.1,8.411C13.6,3.295,9.375,0,5.775,0A5.224,5.224,0,0,0,3.463.519Z" transform="translate(95.309 63.687) rotate(180)" fill="#aadeee"/>
  <path id="Union_2" data-name="Union 2" d="M2.448,64.072c-3.737-2.246-3.126-10.126,1.365-17.6,2.541-4.229,5.779-7.422,8.79-8.991-.13-3.578,1.669-8.466,5.093-13.01a24.875,24.875,0,0,1,9.169-7.809,20.163,20.163,0,0,1,3.295-8.769C34.2,1.676,40.285-1.534,43.759.721s3.018,9.124-1.02,15.34a19.408,19.408,0,0,1-7.461,6.989,24.918,24.918,0,0,1-4.972,10.923,24.858,24.858,0,0,1-9.182,7.814c.273,3.5-1.022,8.232-3.777,12.816C13.67,60.722,8.533,64.673,4.74,64.673A4.382,4.382,0,0,1,2.448,64.072Z" transform="translate(232.382 9.491)" fill="#f8afb4"/>
  <path id="Union_6" data-name="Union 6" d="M2.448.6C-1.29,2.847-.679,10.727,3.813,18.2c2.541,4.229,5.779,7.422,8.789,8.991-.13,3.578,1.669,8.466,5.093,13.01a24.877,24.877,0,0,0,9.169,7.809,20.164,20.164,0,0,0,3.295,8.769C34.2,63,40.285,66.207,43.759,63.951s3.018-9.124-1.02-15.34a19.407,19.407,0,0,0-7.461-6.989A24.918,24.918,0,0,0,30.306,30.7a24.857,24.857,0,0,0-9.182-7.814c.273-3.5-1.022-8.232-3.777-12.816C13.67,3.951,8.533,0,4.74,0A4.382,4.382,0,0,0,2.448.6Z" transform="translate(67.873 74.164) rotate(180)" fill="#aadeee"/>
  <path id="Union_3" data-name="Union 3" d="M1.781,54.52c-3.4-3.064-1.784-10.406,3.613-16.4,3.274-3.636,7.189-5.941,10.521-6.508a18.841,18.841,0,0,1,3.518-7.555c2.6-3.455,5.933-5.748,8.929-6.456-.339-3.161.941-7.248,3.7-10.912C36.394.943,42.727-1.588,46.209,1.036S49,10.445,44.674,16.19c-2.6,3.456-5.932,5.748-8.929,6.456.339,3.161-.941,7.248-3.7,10.913-2.7,3.583-6.181,5.917-9.263,6.528a21.471,21.471,0,0,1-5.067,9.126c-3.8,4.218-8.456,6.644-12.069,6.644A5.622,5.622,0,0,1,1.781,54.52Z" transform="translate(248.231 37.244)" fill="#f8afb4"/>
  <path id="Union_7" data-name="Union 7" d="M1.781,1.338C-1.621,4.4,0,11.744,5.394,17.739c3.274,3.636,7.189,5.941,10.521,6.508A18.843,18.843,0,0,0,19.433,31.8c2.6,3.455,5.933,5.748,8.93,6.456-.339,3.161.941,7.248,3.7,10.912,4.329,5.746,10.662,8.276,14.144,5.652s2.8-9.409-1.535-15.154c-2.6-3.456-5.932-5.748-8.929-6.456.339-3.161-.941-7.248-3.7-10.913-2.7-3.583-6.181-5.917-9.262-6.528a21.471,21.471,0,0,0-5.067-9.126C13.916,2.427,9.258,0,5.645,0A5.622,5.622,0,0,0,1.781,1.338Z" transform="translate(52.022 93.102) rotate(180)" fill="#aadeee"/>
  <path id="Union_4" data-name="Union 4" d="M1.1,34.528c-2.625-3.482-.376-9.6,5.021-13.67a15.47,15.47,0,0,1,9.4-3.385,16.465,16.465,0,0,1,3.079-3.008A14.1,14.1,0,0,1,26.934,11.4a14.109,14.109,0,0,1,4.6-7.59C36.072-.277,41.878-1.224,44.5,1.692s1.076,8.592-3.46,12.676a13.761,13.761,0,0,1-8.537,3.806,13.769,13.769,0,0,1-5.362,7.641,14.813,14.813,0,0,1-7.2,3.015,17.534,17.534,0,0,1-4.322,4.638,15.674,15.674,0,0,1-9.089,3.39A6.545,6.545,0,0,1,1.1,34.528Z" transform="translate(254.471 82.331)" fill="#f8afb4"/>
  <path id="Union_8" data-name="Union 8" d="M1.1,2.33C-1.528,5.812.721,11.932,6.118,16a15.47,15.47,0,0,0,9.4,3.385,16.462,16.462,0,0,0,3.078,3.008,14.1,14.1,0,0,0,8.341,3.068,14.108,14.108,0,0,0,4.6,7.59c4.537,4.085,10.342,5.032,12.968,2.116s1.076-8.592-3.46-12.676a13.761,13.761,0,0,0-8.537-3.806,13.768,13.768,0,0,0-5.362-7.641,14.812,14.812,0,0,0-7.2-3.015A17.538,17.538,0,0,0,15.62,3.39,15.674,15.674,0,0,0,6.531,0,6.545,6.545,0,0,0,1.1,2.33Z" transform="translate(45.782 119.189) rotate(180)" fill="#aadeee"/>
</svg>
